<svg xmlns="http://www.w3.org/2000/svg" data-name="Layer 1" width="819.32659" height="610.28377" viewBox="0 0 819.32659 610.28377" xmlns:xlink="http://www.w3.org/1999/xlink"><circle cx="278.88167" cy="364.62648" r="64.08062" fill="#e5e5e5"/>


<path d="M421.90331,466.68376a64.08562,64.08562,0,0,0,106.77726,67.82106,64.08614,64.08614,0,1,1-106.77726-67.82106Z" transform="translate(-190.33671 -144.85811)" opacity="0.2" style="isolation:isolate"/><polygon points="279.058 364.626 279.234 364.626 282.403 546.305 275.713 546.305 279.058 364.626" fill="#cbcbcb"/><circle cx="390.52777" cy="261.07498" r="77.18423" fill="#e5e5e5"/>
<path d="M637.85482,354.38009a77.19024,77.19024,0,0,1-128.61174,81.68953,77.19088,77.19088,0,1,0,128.61174-81.68953Z" transform="translate(-190.33671 -144.85811)" opacity="0.2" style="isolation:isolate"/><polygon points="390.316 261.075 390.104 261.075 386.287 479.905 394.345 479.905 390.316 261.075" fill="#cbcbcb"/>
<path d="M437.58084,333.6343l10.47979-8.38181c-8.14129-.8982-11.48637,3.54187-12.8554,7.05623-6.36028-2.641-13.28422.82017-13.28422.82017l20.96809,7.61217A15.867,15.867,0,0,0,437.58084,333.6343Z" transform="translate(-190.33671 -144.85811)" fill="#cbcbcb"/>
<path d="M411.164,261.3069l10.47974-8.38182c-8.14128-.89819-11.48637,3.54189-12.85539,7.05622-6.36029-2.641-13.28423.82016-13.28423.82016l20.96809,7.61218A15.8673,15.8673,0,0,0,411.164,261.3069Z" transform="translate(-190.33671 -144.85811)" fill="#cbcbcb"/>
<path d="M559.6222,308.0693l10.47974-8.38182c-8.14128-.8982-11.48637,3.54188-12.85539,7.05621-6.36028-2.641-13.28422.82019-13.28422.82019l20.96808,7.61215A15.86714,15.86714,0,0,0,559.6222,308.0693Z" transform="translate(-190.33671 -144.85811)" fill="#cbcbcb"/>
<path d="M549.26646,624.42805s.401-8.40227,8.62135-7.42564" transform="translate(-190.33671 -144.85811)" fill="#cbcbcb"/>
<path d="M605.107,624.42805s.401-8.40227,8.62136-7.42564" transform="translate(-190.33671 -144.85811)" fill="#cbcbcb"/>
<path d="M588.84806,624.42805s.401-8.40227,8.62135-7.42564" transform="translate(-190.33671 -144.85811)" fill="#cbcbcb"/>
<path d="M534.3087,624.42805s-.401-8.40227-8.62135-7.42564" transform="translate(-190.33671 -144.85811)" fill="#cbcbcb"/>
<path d="M569.14925,625.00872s-.401-8.40227-8.62136-7.42563" transform="translate(-190.33671 -144.85811)" fill="#cbcbcb"/>
<path d="M441.26646,690.42805s.401-8.40227,8.62135-7.42564" transform="translate(-190.33671 -144.85811)" fill="#cbcbcb"/>
<path d="M497.107,690.42805s.401-8.40227,8.62136-7.42564" transform="translate(-190.33671 -144.85811)" fill="#cbcbcb"/>
<path d="M480.84806,690.42805s.401-8.40227,8.62135-7.42564" transform="translate(-190.33671 -144.85811)" fill="#cbcbcb"/>
<path d="M426.3087,690.42805s-.401-8.40227-8.62135-7.42564" transform="translate(-190.33671 -144.85811)" fill="#cbcbcb"/>
<path d="M461.14925,691.00872s-.401-8.40227-8.62136-7.42563" transform="translate(-190.33671 -144.85811)" fill="#cbcbcb"/><rect x="567.18174" y="151.70519" width="107.45569" height="9.57526" fill="#3f3d56"/><rect x="567.18174" y="186.97898" width="107.45569" height="9.57526" fill="#3f3d56"/><rect x="567.18174" y="218.57847" width="107.45569" height="9.57526" fill="#3f3d56"/>
<path d="M717.10049,301.35093a12.49281,12.49281,0,1,1,12.49279,12.49281h0A12.50677,12.50677,0,0,1,717.10049,301.35093Z" transform="translate(-190.33671 -144.85811)" fill="#0000ff"/>
<path d="M717.10049,336.62475a12.49281,12.49281,0,1,1,12.49282,12.49279h0A12.50674,12.50674,0,0,1,717.10049,336.62475Z" transform="translate(-190.33671 -144.85811)" fill="#0000ff"/>
<path d="M717.10049,368.2242a12.49281,12.49281,0,1,1,12.49282,12.4928h0A12.50675,12.50675,0,0,1,717.10049,368.2242Z" transform="translate(-190.33671 -144.85811)" fill="#0000ff"/><polygon points="421.459 240.592 419.88 239.366 460.329 187.284 513.23 187.284 513.23 189.284 461.308 189.284 421.459 240.592" fill="#3f3d56"/><rect y="265.70519" width="107.45569" height="9.57526" fill="#3f3d56"/><rect y="300.97898" width="107.45569" height="9.57526" fill="#3f3d56"/><rect y="332.57847" width="107.45569" height="9.57526" fill="#3f3d56"/>
<path d="M325.71756,427.84374h0a12.49282,12.49282,0,1,1,12.4928-12.49281A12.4928,12.4928,0,0,1,325.71756,427.84374Z" transform="translate(-190.33671 -144.85811)" fill="#0000ff"/>
<path d="M325.71756,463.11754h0a12.49281,12.49281,0,1,1,12.49283-12.49279A12.4928,12.4928,0,0,1,325.71753,463.11754Z" transform="translate(-190.33671 -144.85811)" fill="#0000ff"/>
<path d="M325.71756,494.717h0a12.49282,12.49282,0,1,1,12.49283-12.4928A12.4928,12.4928,0,0,1,325.71753,494.717Z" transform="translate(-190.33671 -144.85811)" fill="#0000ff"/><polygon points="253.179 354.592 213.329 303.284 161.408 303.284 161.408 301.284 214.308 301.284 214.608 301.671 254.758 353.366 253.179 354.592" fill="#3f3d56"/><rect x="373.18174" y="7.70519" width="107.45569" height="9.57526" fill="#3f3d56"/><rect x="373.18174" y="42.97898" width="107.45569" height="9.57526" fill="#3f3d56"/><rect x="373.18174" y="74.57847" width="107.45569" height="9.57526" fill="#3f3d56"/>
<path d="M523.10049,157.35093a12.49281,12.49281,0,1,1,12.49279,12.49281h0A12.50677,12.50677,0,0,1,523.10049,157.35093Z" transform="translate(-190.33671 -144.85811)" fill="#0000ff"/>
<path d="M523.10049,192.62475a12.49281,12.49281,0,1,1,12.49282,12.49279h0A12.50674,12.50674,0,0,1,523.10049,192.62475Z" transform="translate(-190.33671 -144.85811)" fill="#0000ff"/>
<path d="M523.10049,224.2242a12.49281,12.49281,0,1,1,12.49282,12.4928h0A12.50675,12.50675,0,0,1,523.10049,224.2242Z" transform="translate(-190.33671 -144.85811)" fill="#0000ff"/>
<polygon points="227.459 96.592 225.88 95.366 266.329 43.284 319.23 43.284 319.23 45.284 267.308 45.284 227.459 96.592" fill="#3f3d56"/>


</svg>